{
    "asset" : {
        "generator" : "Khronos glTF Blender I/O v1.8.19",
        "version" : "2.0"
    },
    "scene" : 0,
    "scenes" : [
        {
            "name" : "Scene",
            "nodes" : [
                0
            ]
        }
    ],
    "nodes" : [
        {
            "mesh" : 0,
            "name" : "\u9053\u8def16"
        }
    ],
    "materials" : [
        {
            "doubleSided" : true,
            "name" : "Mat3d66-4780452-1-28760",
            "pbrMetallicRoughness" : {
                "baseColorTexture" : {
                    "index" : 0
                },
                "metallicFactor" : 0
            }
        },
        {
            "doubleSided" : true,
            "name" : "Mat3d66-4780452-4-54795",
            "pbrMetallicRoughness" : {
                "metallicFactor" : 0
            }
        },
        {
            "doubleSided" : true,
            "name" : "Mat3d66-4780452-2-67726",
            "pbrMetallicRoughness" : {
                "baseColorFactor" : [
                    0.5,
                    0.5,
                    0.5,
                    1
                ],
                "metallicFactor" : 0
            }
        },
        {
            "doubleSided" : true,
            "name" : "Mat3d66-4780452-6-75543",
            "pbrMetallicRoughness" : {
                "baseColorTexture" : {
                    "index" : 1
                },
                "metallicFactor" : 0
            }
        }
    ],
    "meshes" : [
        {
            "name" : "Obj3d66-4780452-27-63.014",
            "primitives" : [
                {
                    "attributes" : {
                        "POSITION" : 0,
                        "NORMAL" : 1,
                        "TEXCOORD_0" : 2
                    },
                    "indices" : 3,
                    "material" : 0
                },
                {
                    "attributes" : {
                        "POSITION" : 4,
                        "NORMAL" : 5,
                        "TEXCOORD_0" : 6
                    },
                    "indices" : 7,
                    "material" : 1
                },
                {
                    "attributes" : {
                        "POSITION" : 8,
                        "NORMAL" : 9,
                        "TEXCOORD_0" : 10
                    },
                    "indices" : 11,
                    "material" : 2
                },
                {
                    "attributes" : {
                        "POSITION" : 12,
                        "NORMAL" : 13,
                        "TEXCOORD_0" : 14
                    },
                    "indices" : 15,
                    "material" : 3
                }
            ]
        }
    ],
    "textures" : [
        {
            "sampler" : 0,
            "source" : 0
        },
        {
            "sampler" : 0,
            "source" : 1
        }
    ],
    "images" : [
        {
            "bufferView" : 4,
            "mimeType" : "image/jpeg",
            "name" : "3d66Model-4780452-files-7"
        },
        {
            "bufferView" : 17,
            "mimeType" : "image/jpeg",
            "name" : "3d66Model-4780452-files-6"
        }
    ],
    "accessors" : [
        {
            "bufferView" : 0,
            "componentType" : 5126,
            "count" : 24,
            "max" : [
                11.000007629394531,
                0.09999999403953552,
                65.00000762939453
            ],
            "min" : [
                -10.999992370605469,
                0,
                -65
            ],
            "type" : "VEC3"
        },
        {
            "bufferView" : 1,
            "componentType" : 5126,
            "count" : 24,
            "type" : "VEC3"
        },
        {
            "bufferView" : 2,
            "componentType" : 5126,
            "count" : 24,
            "type" : "VEC2"
        },
        {
            "bufferView" : 3,
            "componentType" : 5123,
            "count" : 36,
            "type" : "SCALAR"
        },
        {
            "bufferView" : 5,
            "componentType" : 5126,
            "count" : 516,
            "max" : [
                11.400001525878906,
                0.12334857136011124,
                65.00000762939453
            ],
            "min" : [
                -11.400001525878906,
                0.12334857136011124,
                -65.00000762939453
            ],
            "type" : "VEC3"
        },
        {
            "bufferView" : 6,
            "componentType" : 5126,
            "count" : 516,
            "type" : "VEC3"
        },
        {
            "bufferView" : 7,
            "componentType" : 5126,
            "count" : 516,
            "type" : "VEC2"
        },
        {
            "bufferView" : 8,
            "componentType" : 5123,
            "count" : 912,
            "type" : "SCALAR"
        },
        {
            "bufferView" : 9,
            "componentType" : 5126,
            "count" : 264,
            "max" : [
                1.0999984741210938,
                0.22334857285022736,
                58.99524688720703
            ],
            "min" : [
                -1.1000137329101562,
                0.023348569869995117,
                -58.9952392578125
            ],
            "type" : "VEC3"
        },
        {
            "bufferView" : 10,
            "componentType" : 5126,
            "count" : 264,
            "type" : "VEC3"
        },
        {
            "bufferView" : 11,
            "componentType" : 5126,
            "count" : 264,
            "type" : "VEC2"
        },
        {
            "bufferView" : 12,
            "componentType" : 5123,
            "count" : 768,
            "type" : "SCALAR"
        },
        {
            "bufferView" : 13,
            "componentType" : 5126,
            "count" : 136,
            "max" : [
                0.9999923706054688,
                0.1733485758304596,
                58.895240783691406
            ],
            "min" : [
                -1.0000076293945312,
                0.12334857136011124,
                -58.89523696899414
            ],
            "type" : "VEC3"
        },
        {
            "bufferView" : 14,
            "componentType" : 5126,
            "count" : 136,
            "type" : "VEC3"
        },
        {
            "bufferView" : 15,
            "componentType" : 5126,
            "count" : 136,
            "type" : "VEC2"
        },
        {
            "bufferView" : 16,
            "componentType" : 5123,
            "count" : 372,
            "type" : "SCALAR"
        }
    ],
    "bufferViews" : [
        {
            "buffer" : 0,
            "byteLength" : 288,
            "byteOffset" : 0
        },
        {
            "buffer" : 0,
            "byteLength" : 288,
            "byteOffset" : 288
        },
        {
            "buffer" : 0,
            "byteLength" : 192,
            "byteOffset" : 576
        },
        {
            "buffer" : 0,
            "byteLength" : 72,
            "byteOffset" : 768
        },
        {
            "buffer" : 0,
            "byteLength" : 59972,
            "byteOffset" : 840
        },
        {
            "buffer" : 0,
            "byteLength" : 6192,
            "byteOffset" : 60812
        },
        {
            "buffer" : 0,
            "byteLength" : 6192,
            "byteOffset" : 67004
        },
        {
            "buffer" : 0,
            "byteLength" : 4128,
            "byteOffset" : 73196
        },
        {
            "buffer" : 0,
            "byteLength" : 1824,
            "byteOffset" : 77324
        },
        {
            "buffer" : 0,
            "byteLength" : 3168,
            "byteOffset" : 79148
        },
        {
            "buffer" : 0,
            "byteLength" : 3168,
            "byteOffset" : 82316
        },
        {
            "buffer" : 0,
            "byteLength" : 2112,
            "byteOffset" : 85484
        },
        {
            "buffer" : 0,
            "byteLength" : 1536,
            "byteOffset" : 87596
        },
        {
            "buffer" : 0,
            "byteLength" : 1632,
            "byteOffset" : 89132
        },
        {
            "buffer" : 0,
            "byteLength" : 1632,
            "byteOffset" : 90764
        },
        {
            "buffer" : 0,
            "byteLength" : 1088,
            "byteOffset" : 92396
        },
        {
            "buffer" : 0,
            "byteLength" : 744,
            "byteOffset" : 93484
        },
        {
            "buffer" : 0,
            "byteLength" : 57580,
            "byteOffset" : 94228
        }
    ],
    "samplers" : [
        {
            "magFilter" : 9729,
            "minFilter" : 9987
        }
    ],
    "buffers" : [
        {
            "byteLength" : 151808,
            "uri" : "data:application/octet-stream;base64,"
        }
    ]
}
