{
    "asset" : {
        "generator" : "Khronos glTF Blender I/O v1.8.19",
        "version" : "2.0"
    },
    "scene" : 0,
    "scenes" : [
        {
            "name" : "Scene",
            "nodes" : [
                0
            ]
        }
    ],
    "nodes" : [
        {
            "mesh" : 0,
            "name" : "\u529e\u516c\u697c32"
        }
    ],
    "materials" : [
        {
            "doubleSided" : true,
            "name" : "Mat3d66-1003769-97-6388",
            "pbrMetallicRoughness" : {
                "baseColorFactor" : [
                    0.5882350206375122,
                    0.5882350206375122,
                    0.5882350206375122,
                    1
                ],
                "metallicFactor" : 0,
                "roughnessFactor" : 0.5
            }
        },
        {
            "doubleSided" : true,
            "name" : "Mat3d66-1003769-98-4777",
            "pbrMetallicRoughness" : {
                "baseColorFactor" : [
                    0.2509799897670746,
                    0.2980389893054962,
                    0.34902000427246094,
                    1
                ],
                "metallicFactor" : 0,
                "roughnessFactor" : 0.5
            }
        },
        {
            "doubleSided" : true,
            "name" : "Mat3d66-1003769-96-8279",
            "pbrMetallicRoughness" : {
                "metallicFactor" : 0,
                "roughnessFactor" : 0.5
            }
        },
        {
            "alphaMode" : "BLEND",
            "doubleSided" : true,
            "name" : "Mat3d66-1003769-99-5839",
            "pbrMetallicRoughness" : {
                "baseColorFactor" : [
                    0.564706027507782,
                    0.7372549772262573,
                    0.8352940082550049,
                    0.8031495809555054
                ],
                "metallicFactor" : 0,
                "roughnessFactor" : 0.5
            }
        },
        {
            "doubleSided" : true,
            "name" : "Mat3d66-1003769-100-2865",
            "pbrMetallicRoughness" : {
                "baseColorFactor" : [
                    0.49803900718688965,
                    0.47843098640441895,
                    0.4352940022945404,
                    1
                ],
                "metallicFactor" : 0,
                "roughnessFactor" : 0.5
            }
        },
        {
            "doubleSided" : true,
            "name" : "Mat3d66-1003769-101-5776",
            "pbrMetallicRoughness" : {
                "baseColorTexture" : {
                    "index" : 0
                },
                "metallicFactor" : 0,
                "roughnessFactor" : 0.5
            }
        },
        {
            "doubleSided" : true,
            "name" : "Mat3d66-1003769-137-2161.001",
            "pbrMetallicRoughness" : {
                "baseColorTexture" : {
                    "index" : 1
                },
                "metallicFactor" : 0,
                "roughnessFactor" : 0.9251968860626221
            }
        },
        {
            "doubleSided" : true,
            "name" : "Mat3d66-1003769-102-4474",
            "pbrMetallicRoughness" : {
                "baseColorTexture" : {
                    "index" : 2
                },
                "metallicFactor" : 0,
                "roughnessFactor" : 0.5
            }
        }
    ],
    "meshes" : [
        {
            "name" : "Obj3d66-1003769-122-32",
            "primitives" : [
                {
                    "attributes" : {
                        "POSITION" : 0,
                        "NORMAL" : 1,
                        "TEXCOORD_0" : 2
                    },
                    "indices" : 3,
                    "material" : 0
                },
                {
                    "attributes" : {
                        "POSITION" : 4,
                        "NORMAL" : 5,
                        "TEXCOORD_0" : 6
                    },
                    "indices" : 7,
                    "material" : 1
                },
                {
                    "attributes" : {
                        "POSITION" : 8,
                        "NORMAL" : 9,
                        "TEXCOORD_0" : 10
                    },
                    "indices" : 11,
                    "material" : 2
                },
                {
                    "attributes" : {
                        "POSITION" : 12,
                        "NORMAL" : 13,
                        "TEXCOORD_0" : 14
                    },
                    "indices" : 15,
                    "material" : 3
                },
                {
                    "attributes" : {
                        "POSITION" : 16,
                        "NORMAL" : 17,
                        "TEXCOORD_0" : 18
                    },
                    "indices" : 19,
                    "material" : 4
                },
                {
                    "attributes" : {
                        "POSITION" : 20,
                        "NORMAL" : 21,
                        "TEXCOORD_0" : 22
                    },
                    "indices" : 23,
                    "material" : 5
                },
                {
                    "attributes" : {
                        "POSITION" : 24,
                        "NORMAL" : 25,
                        "TEXCOORD_0" : 26
                    },
                    "indices" : 27,
                    "material" : 6
                },
                {
                    "attributes" : {
                        "POSITION" : 28,
                        "NORMAL" : 29,
                        "TEXCOORD_0" : 30
                    },
                    "indices" : 31,
                    "material" : 7
                }
            ]
        }
    ],
    "textures" : [
        {
            "sampler" : 0,
            "source" : 0
        },
        {
            "sampler" : 0,
            "source" : 1
        },
        {
            "sampler" : 0,
            "source" : 2
        }
    ],
    "images" : [
        {
            "bufferView" : 24,
            "mimeType" : "image/jpeg",
            "name" : "Image_0"
        },
        {
            "bufferView" : 29,
            "mimeType" : "image/jpeg",
            "name" : "Image_1"
        },
        {
            "bufferView" : 34,
            "mimeType" : "image/jpeg",
            "name" : "Image_2"
        }
    ],
    "accessors" : [
        {
            "bufferView" : 0,
            "componentType" : 5126,
            "count" : 618,
            "max" : [
                15.199944496154785,
                3.843738555908203,
                6.883086681365967
            ],
            "min" : [
                -15.200057029724121,
                0.06373834609985352,
                -4.45691442489624
            ],
            "type" : "VEC3"
        },
        {
            "bufferView" : 1,
            "componentType" : 5126,
            "count" : 618,
            "type" : "VEC3"
        },
        {
            "bufferView" : 2,
            "componentType" : 5126,
            "count" : 618,
            "type" : "VEC2"
        },
        {
            "bufferView" : 3,
            "componentType" : 5123,
            "count" : 840,
            "type" : "SCALAR"
        },
        {
            "bufferView" : 4,
            "componentType" : 5126,
            "count" : 2969,
            "max" : [
                15.101479530334473,
                8.695658683776855,
                4.4786458015441895
            ],
            "min" : [
                -15.101584434509277,
                0.3637385368347168,
                1.8830889463424683
            ],
            "type" : "VEC3"
        },
        {
            "bufferView" : 5,
            "componentType" : 5126,
            "count" : 2969,
            "type" : "VEC3"
        },
        {
            "bufferView" : 6,
            "componentType" : 5126,
            "count" : 2969,
            "type" : "VEC2"
        },
        {
            "bufferView" : 7,
            "componentType" : 5123,
            "count" : 4104,
            "type" : "SCALAR"
        },
        {
            "bufferView" : 8,
            "componentType" : 5126,
            "count" : 3007,
            "max" : [
                15.89995288848877,
                9.813738822937012,
                7.483086585998535
            ],
            "min" : [
                -15.900053024291992,
                0.06373929977416992,
                -5.066913604736328
            ],
            "type" : "VEC3"
        },
        {
            "bufferView" : 9,
            "componentType" : 5126,
            "count" : 3007,
            "type" : "VEC3"
        },
        {
            "bufferView" : 10,
            "componentType" : 5126,
            "count" : 3007,
            "type" : "VEC2"
        },
        {
            "bufferView" : 11,
            "componentType" : 5123,
            "count" : 3900,
            "type" : "SCALAR"
        },
        {
            "bufferView" : 12,
            "componentType" : 5126,
            "count" : 156,
            "max" : [
                15.061480522155762,
                8.515874862670898,
                4.4386515617370605
            ],
            "min" : [
                -15.06158447265625,
                3.337860107421875e-06,
                1.8830944299697876
            ],
            "type" : "VEC3"
        },
        {
            "bufferView" : 13,
            "componentType" : 5126,
            "count" : 156,
            "type" : "VEC3"
        },
        {
            "bufferView" : 14,
            "componentType" : 5126,
            "count" : 156,
            "type" : "VEC2"
        },
        {
            "bufferView" : 15,
            "componentType" : 5123,
            "count" : 192,
            "type" : "SCALAR"
        },
        {
            "bufferView" : 16,
            "componentType" : 5126,
            "count" : 1892,
            "max" : [
                15.209946632385254,
                8.612377166748047,
                7.6031107902526855
            ],
            "min" : [
                -15.210057258605957,
                3.828738212585449,
                -4.4569091796875
            ],
            "type" : "VEC3"
        },
        {
            "bufferView" : 17,
            "componentType" : 5126,
            "count" : 1892,
            "type" : "VEC3"
        },
        {
            "bufferView" : 18,
            "componentType" : 5126,
            "count" : 1892,
            "type" : "VEC2"
        },
        {
            "bufferView" : 19,
            "componentType" : 5123,
            "count" : 2700,
            "type" : "SCALAR"
        },
        {
            "bufferView" : 20,
            "componentType" : 5126,
            "count" : 152,
            "max" : [
                12.541539192199707,
                0.3637404441833496,
                7.458942890167236
            ],
            "min" : [
                -12.54164981842041,
                0.06374025344848633,
                3.483097791671753
            ],
            "type" : "VEC3"
        },
        {
            "bufferView" : 21,
            "componentType" : 5126,
            "count" : 152,
            "type" : "VEC3"
        },
        {
            "bufferView" : 22,
            "componentType" : 5126,
            "count" : 152,
            "type" : "VEC2"
        },
        {
            "bufferView" : 23,
            "componentType" : 5123,
            "count" : 216,
            "type" : "SCALAR"
        },
        {
            "bufferView" : 25,
            "componentType" : 5126,
            "count" : 176,
            "max" : [
                15.899949073791504,
                9.825085639953613,
                5.383090496063232
            ],
            "min" : [
                -15.900055885314941,
                7.613738059997559,
                -5.071634292602539
            ],
            "type" : "VEC3"
        },
        {
            "bufferView" : 26,
            "componentType" : 5126,
            "count" : 176,
            "type" : "VEC3"
        },
        {
            "bufferView" : 27,
            "componentType" : 5126,
            "count" : 176,
            "type" : "VEC2"
        },
        {
            "bufferView" : 28,
            "componentType" : 5123,
            "count" : 180,
            "type" : "SCALAR"
        },
        {
            "bufferView" : 30,
            "componentType" : 5126,
            "count" : 259,
            "max" : [
                14.999947547912598,
                7.686950206756592,
                7.2830963134765625
            ],
            "min" : [
                -15.000053405761719,
                0.06374025344848633,
                -4.2569050788879395
            ],
            "type" : "VEC3"
        },
        {
            "bufferView" : 31,
            "componentType" : 5126,
            "count" : 259,
            "type" : "VEC3"
        },
        {
            "bufferView" : 32,
            "componentType" : 5126,
            "count" : 259,
            "type" : "VEC2"
        },
        {
            "bufferView" : 33,
            "componentType" : 5123,
            "count" : 360,
            "type" : "SCALAR"
        }
    ],
    "bufferViews" : [
        {
            "buffer" : 0,
            "byteLength" : 7416,
            "byteOffset" : 0
        },
        {
            "buffer" : 0,
            "byteLength" : 7416,
            "byteOffset" : 7416
        },
        {
            "buffer" : 0,
            "byteLength" : 4944,
            "byteOffset" : 14832
        },
        {
            "buffer" : 0,
            "byteLength" : 1680,
            "byteOffset" : 19776
        },
        {
            "buffer" : 0,
            "byteLength" : 35628,
            "byteOffset" : 21456
        },
        {
            "buffer" : 0,
            "byteLength" : 35628,
            "byteOffset" : 57084
        },
        {
            "buffer" : 0,
            "byteLength" : 23752,
            "byteOffset" : 92712
        },
        {
            "buffer" : 0,
            "byteLength" : 8208,
            "byteOffset" : 116464
        },
        {
            "buffer" : 0,
            "byteLength" : 36084,
            "byteOffset" : 124672
        },
        {
            "buffer" : 0,
            "byteLength" : 36084,
            "byteOffset" : 160756
        },
        {
            "buffer" : 0,
            "byteLength" : 24056,
            "byteOffset" : 196840
        },
        {
            "buffer" : 0,
            "byteLength" : 7800,
            "byteOffset" : 220896
        },
        {
            "buffer" : 0,
            "byteLength" : 1872,
            "byteOffset" : 228696
        },
        {
            "buffer" : 0,
            "byteLength" : 1872,
            "byteOffset" : 230568
        },
        {
            "buffer" : 0,
            "byteLength" : 1248,
            "byteOffset" : 232440
        },
        {
            "buffer" : 0,
            "byteLength" : 384,
            "byteOffset" : 233688
        },
        {
            "buffer" : 0,
            "byteLength" : 22704,
            "byteOffset" : 234072
        },
        {
            "buffer" : 0,
            "byteLength" : 22704,
            "byteOffset" : 256776
        },
        {
            "buffer" : 0,
            "byteLength" : 15136,
            "byteOffset" : 279480
        },
        {
            "buffer" : 0,
            "byteLength" : 5400,
            "byteOffset" : 294616
        },
        {
            "buffer" : 0,
            "byteLength" : 1824,
            "byteOffset" : 300016
        },
        {
            "buffer" : 0,
            "byteLength" : 1824,
            "byteOffset" : 301840
        },
        {
            "buffer" : 0,
            "byteLength" : 1216,
            "byteOffset" : 303664
        },
        {
            "buffer" : 0,
            "byteLength" : 432,
            "byteOffset" : 304880
        },
        {
            "buffer" : 0,
            "byteLength" : 132586,
            "byteOffset" : 305312
        },
        {
            "buffer" : 0,
            "byteLength" : 2112,
            "byteOffset" : 437900
        },
        {
            "buffer" : 0,
            "byteLength" : 2112,
            "byteOffset" : 440012
        },
        {
            "buffer" : 0,
            "byteLength" : 1408,
            "byteOffset" : 442124
        },
        {
            "buffer" : 0,
            "byteLength" : 360,
            "byteOffset" : 443532
        },
        {
            "buffer" : 0,
            "byteLength" : 189574,
            "byteOffset" : 443892
        },
        {
            "buffer" : 0,
            "byteLength" : 3108,
            "byteOffset" : 633468
        },
        {
            "buffer" : 0,
            "byteLength" : 3108,
            "byteOffset" : 636576
        },
        {
            "buffer" : 0,
            "byteLength" : 2072,
            "byteOffset" : 639684
        },
        {
            "buffer" : 0,
            "byteLength" : 720,
            "byteOffset" : 641756
        },
        {
            "buffer" : 0,
            "byteLength" : 37172,
            "byteOffset" : 642476
        }
    ],
    "samplers" : [
        {
            "magFilter" : 9729,
            "minFilter" : 9987
        }
    ],
    "buffers" : [
        {
            "byteLength" : 679648,
            "uri" : "data:application/octet-stream;base64,"
        }
    ]
}
