{
    "asset" : {
        "generator" : "Khronos glTF Blender I/O v1.8.19",
        "version" : "2.0"
    },
    "scene" : 0,
    "scenes" : [
        {
            "name" : "Scene",
            "nodes" : [
                0
            ]
        }
    ],
    "nodes" : [
        {
            "mesh" : 0,
            "name" : "\u529e\u516c\u697c05"
        }
    ],
    "materials" : [
        {
            "doubleSided" : true,
            "name" : "Mat3d66-1004260-115-6326",
            "pbrMetallicRoughness" : {
                "metallicFactor" : 0,
                "roughnessFactor" : 0.8070865869522095
            }
        },
        {
            "doubleSided" : true,
            "name" : "Mat3d66-1004260-116-5216",
            "pbrMetallicRoughness" : {
                "baseColorFactor" : [
                    0.2509799897670746,
                    0.2980389893054962,
                    0.34902000427246094,
                    1
                ],
                "metallicFactor" : 0,
                "roughnessFactor" : 0.751968502998352
            }
        },
        {
            "doubleSided" : true,
            "name" : "Mat3d66-1004260-117-404",
            "pbrMetallicRoughness" : {
                "baseColorFactor" : [
                    0.4627450108528137,
                    0.521569013595581,
                    0.6392160058021545,
                    1
                ],
                "metallicFactor" : 0,
                "roughnessFactor" : 0.8307086229324341
            }
        },
        {
            "alphaMode" : "BLEND",
            "doubleSided" : true,
            "name" : "Mat3d66-1004260-118-5925",
            "pbrMetallicRoughness" : {
                "baseColorFactor" : [
                    0.564706027507782,
                    0.7372549772262573,
                    0.8352940082550049,
                    0.6771653294563293
                ],
                "metallicFactor" : 0,
                "roughnessFactor" : 0.799212634563446
            }
        },
        {
            "doubleSided" : true,
            "name" : "Mat3d66-1004260-119-4811",
            "pbrMetallicRoughness" : {
                "baseColorFactor" : [
                    0.800000011920929,
                    0.800000011920929,
                    0.800000011920929,
                    1
                ],
                "metallicFactor" : 0,
                "roughnessFactor" : 0.8228346109390259
            }
        },
        {
            "doubleSided" : true,
            "name" : "Mat3d66-1004260-120-8892",
            "pbrMetallicRoughness" : {
                "baseColorFactor" : [
                    0.800000011920929,
                    0.800000011920929,
                    0.800000011920929,
                    1
                ],
                "metallicFactor" : 0,
                "roughnessFactor" : 0.8543307185173035
            }
        }
    ],
    "meshes" : [
        {
            "name" : "Obj3d66-1004260-120-244",
            "primitives" : [
                {
                    "attributes" : {
                        "POSITION" : 0,
                        "NORMAL" : 1,
                        "TEXCOORD_0" : 2
                    },
                    "indices" : 3,
                    "material" : 0
                },
                {
                    "attributes" : {
                        "POSITION" : 4,
                        "NORMAL" : 5,
                        "TEXCOORD_0" : 6
                    },
                    "indices" : 7,
                    "material" : 1
                },
                {
                    "attributes" : {
                        "POSITION" : 8,
                        "NORMAL" : 9,
                        "TEXCOORD_0" : 10
                    },
                    "indices" : 11,
                    "material" : 2
                },
                {
                    "attributes" : {
                        "POSITION" : 12,
                        "NORMAL" : 13,
                        "TEXCOORD_0" : 14
                    },
                    "indices" : 15,
                    "material" : 3
                },
                {
                    "attributes" : {
                        "POSITION" : 16,
                        "NORMAL" : 17,
                        "TEXCOORD_0" : 18
                    },
                    "indices" : 19,
                    "material" : 4
                },
                {
                    "attributes" : {
                        "POSITION" : 20,
                        "NORMAL" : 21,
                        "TEXCOORD_0" : 22
                    },
                    "indices" : 23,
                    "material" : 5
                }
            ]
        }
    ],
    "accessors" : [
        {
            "bufferView" : 0,
            "componentType" : 5126,
            "count" : 10970,
            "max" : [
                27.4649658203125,
                44.10002899169922,
                6.619546413421631
            ],
            "min" : [
                -24.393810272216797,
                8.900022506713867,
                -6.883241653442383
            ],
            "type" : "VEC3"
        },
        {
            "bufferView" : 1,
            "componentType" : 5126,
            "count" : 10970,
            "type" : "VEC3"
        },
        {
            "bufferView" : 2,
            "componentType" : 5126,
            "count" : 10970,
            "type" : "VEC2"
        },
        {
            "bufferView" : 3,
            "componentType" : 5123,
            "count" : 13464,
            "type" : "SCALAR"
        },
        {
            "bufferView" : 4,
            "componentType" : 5126,
            "count" : 31033,
            "max" : [
                27.86495590209961,
                44.100032806396484,
                6.978933811187744
            ],
            "min" : [
                -24.353816986083984,
                0.10002708435058594,
                -7.283238410949707
            ],
            "type" : "VEC3"
        },
        {
            "bufferView" : 5,
            "componentType" : 5126,
            "count" : 31033,
            "type" : "VEC3"
        },
        {
            "bufferView" : 6,
            "componentType" : 5126,
            "count" : 31033,
            "type" : "VEC2"
        },
        {
            "bufferView" : 7,
            "componentType" : 5123,
            "count" : 35448,
            "type" : "SCALAR"
        },
        {
            "bufferView" : 8,
            "componentType" : 5126,
            "count" : 638,
            "max" : [
                27.864612579345703,
                8.100025177001953,
                7.069547176361084
            ],
            "min" : [
                -23.53504180908203,
                3.100027084350586,
                6.919546127319336
            ],
            "type" : "VEC3"
        },
        {
            "bufferView" : 9,
            "componentType" : 5126,
            "count" : 638,
            "type" : "VEC3"
        },
        {
            "bufferView" : 10,
            "componentType" : 5126,
            "count" : 638,
            "type" : "VEC2"
        },
        {
            "bufferView" : 11,
            "componentType" : 5123,
            "count" : 900,
            "type" : "SCALAR"
        },
        {
            "bufferView" : 12,
            "componentType" : 5126,
            "count" : 850,
            "max" : [
                27.864959716796875,
                44.10002517700195,
                6.938920021057129
            ],
            "min" : [
                -24.313796997070312,
                0.10002708435058594,
                -6.883127212524414
            ],
            "type" : "VEC3"
        },
        {
            "bufferView" : 13,
            "componentType" : 5126,
            "count" : 850,
            "type" : "VEC3"
        },
        {
            "bufferView" : 14,
            "componentType" : 5126,
            "count" : 850,
            "type" : "VEC2"
        },
        {
            "bufferView" : 15,
            "componentType" : 5123,
            "count" : 1008,
            "type" : "SCALAR"
        },
        {
            "bufferView" : 16,
            "componentType" : 5126,
            "count" : 17810,
            "max" : [
                28.465103149414062,
                46.500030517578125,
                7.319561958312988
            ],
            "min" : [
                -24.781951904296875,
                2.86102294921875e-05,
                -7.283239364624023
            ],
            "type" : "VEC3"
        },
        {
            "bufferView" : 17,
            "componentType" : 5126,
            "count" : 17810,
            "type" : "VEC3"
        },
        {
            "bufferView" : 18,
            "componentType" : 5126,
            "count" : 17810,
            "type" : "VEC2"
        },
        {
            "bufferView" : 19,
            "componentType" : 5123,
            "count" : 22668,
            "type" : "SCALAR"
        },
        {
            "bufferView" : 20,
            "componentType" : 5126,
            "count" : 414,
            "max" : [
                28.065101623535156,
                44.900028228759766,
                6.919567108154297
            ],
            "min" : [
                -24.381935119628906,
                2.47955322265625e-05,
                -7.083086013793945
            ],
            "type" : "VEC3"
        },
        {
            "bufferView" : 21,
            "componentType" : 5126,
            "count" : 414,
            "type" : "VEC3"
        },
        {
            "bufferView" : 22,
            "componentType" : 5126,
            "count" : 414,
            "type" : "VEC2"
        },
        {
            "bufferView" : 23,
            "componentType" : 5123,
            "count" : 504,
            "type" : "SCALAR"
        }
    ],
    "bufferViews" : [
        {
            "buffer" : 0,
            "byteLength" : 131640,
            "byteOffset" : 0
        },
        {
            "buffer" : 0,
            "byteLength" : 131640,
            "byteOffset" : 131640
        },
        {
            "buffer" : 0,
            "byteLength" : 87760,
            "byteOffset" : 263280
        },
        {
            "buffer" : 0,
            "byteLength" : 26928,
            "byteOffset" : 351040
        },
        {
            "buffer" : 0,
            "byteLength" : 372396,
            "byteOffset" : 377968
        },
        {
            "buffer" : 0,
            "byteLength" : 372396,
            "byteOffset" : 750364
        },
        {
            "buffer" : 0,
            "byteLength" : 248264,
            "byteOffset" : 1122760
        },
        {
            "buffer" : 0,
            "byteLength" : 70896,
            "byteOffset" : 1371024
        },
        {
            "buffer" : 0,
            "byteLength" : 7656,
            "byteOffset" : 1441920
        },
        {
            "buffer" : 0,
            "byteLength" : 7656,
            "byteOffset" : 1449576
        },
        {
            "buffer" : 0,
            "byteLength" : 5104,
            "byteOffset" : 1457232
        },
        {
            "buffer" : 0,
            "byteLength" : 1800,
            "byteOffset" : 1462336
        },
        {
            "buffer" : 0,
            "byteLength" : 10200,
            "byteOffset" : 1464136
        },
        {
            "buffer" : 0,
            "byteLength" : 10200,
            "byteOffset" : 1474336
        },
        {
            "buffer" : 0,
            "byteLength" : 6800,
            "byteOffset" : 1484536
        },
        {
            "buffer" : 0,
            "byteLength" : 2016,
            "byteOffset" : 1491336
        },
        {
            "buffer" : 0,
            "byteLength" : 213720,
            "byteOffset" : 1493352
        },
        {
            "buffer" : 0,
            "byteLength" : 213720,
            "byteOffset" : 1707072
        },
        {
            "buffer" : 0,
            "byteLength" : 142480,
            "byteOffset" : 1920792
        },
        {
            "buffer" : 0,
            "byteLength" : 45336,
            "byteOffset" : 2063272
        },
        {
            "buffer" : 0,
            "byteLength" : 4968,
            "byteOffset" : 2108608
        },
        {
            "buffer" : 0,
            "byteLength" : 4968,
            "byteOffset" : 2113576
        },
        {
            "buffer" : 0,
            "byteLength" : 3312,
            "byteOffset" : 2118544
        },
        {
            "buffer" : 0,
            "byteLength" : 1008,
            "byteOffset" : 2121856
        }
    ],
    "buffers" : [
        {
            "byteLength" : 2122864,
            "uri" : "data:application/octet-stream;base64,"
        }
    ]
}
