{
    "asset" : {
        "generator" : "Khronos glTF Blender I/O v1.8.19",
        "version" : "2.0"
    },
    "scene" : 0,
    "scenes" : [
        {
            "name" : "Scene",
            "nodes" : [
                0
            ]
        }
    ],
    "nodes" : [
        {
            "mesh" : 0,
            "name" : "\u5927\u5df402"
        }
    ],
    "materials" : [
        {
            "doubleSided" : true,
            "name" : "Mat3d66-1537423-9-2155",
            "pbrMetallicRoughness" : {
                "baseColorTexture" : {
                    "index" : 0
                },
                "metallicFactor" : 0,
                "roughnessFactor" : 0.8858267068862915
            }
        }
    ],
    "meshes" : [
        {
            "name" : "Obj3d66-1537423-31-456",
            "primitives" : [
                {
                    "attributes" : {
                        "POSITION" : 0,
                        "NORMAL" : 1,
                        "TEXCOORD_0" : 2
                    },
                    "indices" : 3,
                    "material" : 0
                }
            ]
        }
    ],
    "textures" : [
        {
            "sampler" : 0,
            "source" : 0
        }
    ],
    "images" : [
        {
            "bufferView" : 4,
            "mimeType" : "image/jpeg",
            "name" : "3d66Model-1537423-files-8"
        }
    ],
    "accessors" : [
        {
            "bufferView" : 0,
            "componentType" : 5126,
            "count" : 886,
            "max" : [
                1.403780460357666,
                2.9046685695648193,
                5.328056335449219
            ],
            "min" : [
                -1.403780460357666,
                -2.9802322387695312e-08,
                -5.328056335449219
            ],
            "type" : "VEC3"
        },
        {
            "bufferView" : 1,
            "componentType" : 5126,
            "count" : 886,
            "type" : "VEC3"
        },
        {
            "bufferView" : 2,
            "componentType" : 5126,
            "count" : 886,
            "type" : "VEC2"
        },
        {
            "bufferView" : 3,
            "componentType" : 5123,
            "count" : 2442,
            "type" : "SCALAR"
        }
    ],
    "bufferViews" : [
        {
            "buffer" : 0,
            "byteLength" : 10632,
            "byteOffset" : 0
        },
        {
            "buffer" : 0,
            "byteLength" : 10632,
            "byteOffset" : 10632
        },
        {
            "buffer" : 0,
            "byteLength" : 7088,
            "byteOffset" : 21264
        },
        {
            "buffer" : 0,
            "byteLength" : 4884,
            "byteOffset" : 28352
        },
        {
            "buffer" : 0,
            "byteLength" : 61984,
            "byteOffset" : 33236
        }
    ],
    "samplers" : [
        {
            "magFilter" : 9729,
            "minFilter" : 9987
        }
    ],
    "buffers" : [
        {
            "byteLength" : 95220,
            "uri" : "data:application/octet-stream;base64,"
        }
    ]
}
