{
    "asset" : {
        "generator" : "Khronos glTF Blender I/O v1.8.19",
        "version" : "2.0"
    },
    "scene" : 0,
    "scenes" : [
        {
            "name" : "Scene",
            "nodes" : [
                0
            ]
        }
    ],
    "nodes" : [
        {
            "mesh" : 0,
            "name" : "\u8def\u706f01"
        }
    ],
    "materials" : [
        {
            "doubleSided" : true,
            "name" : "Mat3d66-695033-13-6955",
            "normalTexture" : {
                "index" : 0
            },
            "pbrMetallicRoughness" : {
                "baseColorTexture" : {
                    "index" : 1
                },
                "metallicFactor" : 0
            }
        },
        {
            "doubleSided" : true,
            "name" : "Mat3d66-695033-12-1968",
            "pbrMetallicRoughness" : {
                "baseColorFactor" : [
                    0.9254900217056274,
                    0.9254900217056274,
                    0.9254900217056274,
                    1
                ],
                "metallicFactor" : 0,
                "roughnessFactor" : 0.5
            }
        },
        {
            "doubleSided" : true,
            "name" : "Mat3d66-695033-14-7282",
            "pbrMetallicRoughness" : {
                "baseColorFactor" : [
                    0.01176500041037798,
                    0.37254899740219116,
                    0.8196079730987549,
                    1
                ],
                "metallicFactor" : 0,
                "roughnessFactor" : 0.5
            }
        },
        {
            "doubleSided" : true,
            "name" : "Mat3d66-695033-15-1328",
            "pbrMetallicRoughness" : {
                "metallicFactor" : 0,
                "roughnessFactor" : 0.5
            }
        }
    ],
    "meshes" : [
        {
            "name" : "Obj3d66-695033-28-131",
            "primitives" : [
                {
                    "attributes" : {
                        "POSITION" : 0,
                        "NORMAL" : 1,
                        "TEXCOORD_0" : 2
                    },
                    "indices" : 3,
                    "material" : 0
                },
                {
                    "attributes" : {
                        "POSITION" : 4,
                        "NORMAL" : 5,
                        "TEXCOORD_0" : 6
                    },
                    "indices" : 7,
                    "material" : 1
                },
                {
                    "attributes" : {
                        "POSITION" : 8,
                        "NORMAL" : 9,
                        "TEXCOORD_0" : 10
                    },
                    "indices" : 11,
                    "material" : 2
                },
                {
                    "attributes" : {
                        "POSITION" : 12,
                        "NORMAL" : 13,
                        "TEXCOORD_0" : 14
                    },
                    "indices" : 15,
                    "material" : 3
                }
            ]
        }
    ],
    "textures" : [
        {
            "sampler" : 0,
            "source" : 0
        },
        {
            "sampler" : 0,
            "source" : 0
        }
    ],
    "images" : [
        {
            "bufferView" : 4,
            "mimeType" : "image/jpeg",
            "name" : "Image_0"
        }
    ],
    "accessors" : [
        {
            "bufferView" : 0,
            "componentType" : 5126,
            "count" : 724,
            "max" : [
                0.39672088623046875,
                1.5316734313964844,
                0.3836853504180908
            ],
            "min" : [
                -0.39672088623046875,
                2.956390380859375e-05,
                -0.40974265336990356
            ],
            "type" : "VEC3"
        },
        {
            "bufferView" : 1,
            "componentType" : 5126,
            "count" : 724,
            "type" : "VEC3"
        },
        {
            "bufferView" : 2,
            "componentType" : 5126,
            "count" : 724,
            "type" : "VEC2"
        },
        {
            "bufferView" : 3,
            "componentType" : 5123,
            "count" : 1008,
            "type" : "SCALAR"
        },
        {
            "bufferView" : 5,
            "componentType" : 5126,
            "count" : 36,
            "max" : [
                0.05083466321229935,
                11.39836597442627,
                2.2081809043884277
            ],
            "min" : [
                -0.18498992919921875,
                11.337236404418945,
                -2.20822811126709
            ],
            "type" : "VEC3"
        },
        {
            "bufferView" : 6,
            "componentType" : 5126,
            "count" : 36,
            "type" : "VEC3"
        },
        {
            "bufferView" : 7,
            "componentType" : 5126,
            "count" : 36,
            "type" : "VEC2"
        },
        {
            "bufferView" : 8,
            "componentType" : 5123,
            "count" : 48,
            "type" : "SCALAR"
        },
        {
            "bufferView" : 9,
            "componentType" : 5126,
            "count" : 40,
            "max" : [
                0.022926338016986847,
                1.0450811386108398,
                0.09897232055664062
            ],
            "min" : [
                -0.17470550537109375,
                0,
                -0.09865689277648926
            ],
            "type" : "VEC3"
        },
        {
            "bufferView" : 10,
            "componentType" : 5126,
            "count" : 40,
            "type" : "VEC3"
        },
        {
            "bufferView" : 11,
            "componentType" : 5126,
            "count" : 40,
            "type" : "VEC2"
        },
        {
            "bufferView" : 12,
            "componentType" : 5123,
            "count" : 96,
            "type" : "SCALAR"
        },
        {
            "bufferView" : 13,
            "componentType" : 5126,
            "count" : 2649,
            "max" : [
                0.09165191650390625,
                12.09015941619873,
                2.2585933208465576
            ],
            "min" : [
                -0.22966766357421875,
                1.0450811386108398,
                -2.2585933208465576
            ],
            "type" : "VEC3"
        },
        {
            "bufferView" : 14,
            "componentType" : 5126,
            "count" : 2649,
            "type" : "VEC3"
        },
        {
            "bufferView" : 15,
            "componentType" : 5126,
            "count" : 2649,
            "type" : "VEC2"
        },
        {
            "bufferView" : 16,
            "componentType" : 5123,
            "count" : 7536,
            "type" : "SCALAR"
        }
    ],
    "bufferViews" : [
        {
            "buffer" : 0,
            "byteLength" : 8688,
            "byteOffset" : 0
        },
        {
            "buffer" : 0,
            "byteLength" : 8688,
            "byteOffset" : 8688
        },
        {
            "buffer" : 0,
            "byteLength" : 5792,
            "byteOffset" : 17376
        },
        {
            "buffer" : 0,
            "byteLength" : 2016,
            "byteOffset" : 23168
        },
        {
            "buffer" : 0,
            "byteLength" : 452491,
            "byteOffset" : 25184
        },
        {
            "buffer" : 0,
            "byteLength" : 432,
            "byteOffset" : 477676
        },
        {
            "buffer" : 0,
            "byteLength" : 432,
            "byteOffset" : 478108
        },
        {
            "buffer" : 0,
            "byteLength" : 288,
            "byteOffset" : 478540
        },
        {
            "buffer" : 0,
            "byteLength" : 96,
            "byteOffset" : 478828
        },
        {
            "buffer" : 0,
            "byteLength" : 480,
            "byteOffset" : 478924
        },
        {
            "buffer" : 0,
            "byteLength" : 480,
            "byteOffset" : 479404
        },
        {
            "buffer" : 0,
            "byteLength" : 320,
            "byteOffset" : 479884
        },
        {
            "buffer" : 0,
            "byteLength" : 192,
            "byteOffset" : 480204
        },
        {
            "buffer" : 0,
            "byteLength" : 31788,
            "byteOffset" : 480396
        },
        {
            "buffer" : 0,
            "byteLength" : 31788,
            "byteOffset" : 512184
        },
        {
            "buffer" : 0,
            "byteLength" : 21192,
            "byteOffset" : 543972
        },
        {
            "buffer" : 0,
            "byteLength" : 15072,
            "byteOffset" : 565164
        }
    ],
    "samplers" : [
        {
            "magFilter" : 9729,
            "minFilter" : 9987
        }
    ],
    "buffers" : [
        {
            "byteLength" : 580236,
            "uri" : "data:application/octet-stream;base64,"
        }
    ]
}
