{
    "asset" : {
        "generator" : "Khronos glTF Blender I/O v1.8.19",
        "version" : "2.0"
    },
    "scene" : 0,
    "scenes" : [
        {
            "name" : "Scene",
            "nodes" : [
                0
            ]
        }
    ],
    "nodes" : [
        {
            "mesh" : 0,
            "name" : "\u7ad9\u53f014"
        }
    ],
    "materials" : [
        {
            "doubleSided" : true,
            "name" : "Mat3d66-1498787-3-5901.001",
            "pbrMetallicRoughness" : {
                "baseColorFactor" : [
                    0.1725490242242813,
                    0.2196078598499298,
                    0.3137255012989044,
                    0.8199999928474426
                ],
                "metallicFactor" : 0,
                "roughnessFactor" : 0.6315265893936157
            }
        },
        {
            "doubleSided" : true,
            "name" : "Mat3d66-1498787-4-1370.001",
            "pbrMetallicRoughness" : {
                "baseColorFactor" : [
                    0.43181371688842773,
                    0.4378957450389862,
                    0.4439775347709656,
                    1
                ],
                "metallicFactor" : 0.07874015718698502,
                "roughnessFactor" : 0.6315261125564575
            }
        },
        {
            "doubleSided" : true,
            "name" : "Mat3d66-1498787-18-3486.001",
            "pbrMetallicRoughness" : {
                "baseColorTexture" : {
                    "index" : 0
                },
                "metallicFactor" : 0,
                "roughnessFactor" : 0.804754912853241
            }
        }
    ],
    "meshes" : [
        {
            "name" : "\u7f51\u683c.386",
            "primitives" : [
                {
                    "attributes" : {
                        "POSITION" : 0,
                        "NORMAL" : 1,
                        "TEXCOORD_0" : 2
                    },
                    "indices" : 3,
                    "material" : 0
                },
                {
                    "attributes" : {
                        "POSITION" : 4,
                        "NORMAL" : 5,
                        "TEXCOORD_0" : 6
                    },
                    "indices" : 7,
                    "material" : 1
                },
                {
                    "attributes" : {
                        "POSITION" : 8,
                        "NORMAL" : 9,
                        "TEXCOORD_0" : 10
                    },
                    "indices" : 11,
                    "material" : 2
                }
            ]
        }
    ],
    "textures" : [
        {
            "sampler" : 0,
            "source" : 0
        }
    ],
    "images" : [
        {
            "bufferView" : 12,
            "mimeType" : "image/jpeg",
            "name" : "3d66Model-1498787-files-1"
        }
    ],
    "accessors" : [
        {
            "bufferView" : 0,
            "componentType" : 5126,
            "count" : 286,
            "max" : [
                3.50146484375,
                3.1235008239746094,
                0.9627399444580078
            ],
            "min" : [
                -3.042999267578125,
                0.5379142761230469,
                -1.1461181640625
            ],
            "type" : "VEC3"
        },
        {
            "bufferView" : 1,
            "componentType" : 5126,
            "count" : 286,
            "type" : "VEC3"
        },
        {
            "bufferView" : 2,
            "componentType" : 5126,
            "count" : 286,
            "type" : "VEC2"
        },
        {
            "bufferView" : 3,
            "componentType" : 5123,
            "count" : 594,
            "type" : "SCALAR"
        },
        {
            "bufferView" : 4,
            "componentType" : 5126,
            "count" : 12104,
            "max" : [
                3.501434326171875,
                3.1235008239746094,
                1.1461200714111328
            ],
            "min" : [
                -3.50146484375,
                0,
                -1.1461181640625
            ],
            "type" : "VEC3"
        },
        {
            "bufferView" : 5,
            "componentType" : 5126,
            "count" : 12104,
            "type" : "VEC3"
        },
        {
            "bufferView" : 6,
            "componentType" : 5126,
            "count" : 12104,
            "type" : "VEC2"
        },
        {
            "bufferView" : 7,
            "componentType" : 5123,
            "count" : 21966,
            "type" : "SCALAR"
        },
        {
            "bufferView" : 8,
            "componentType" : 5126,
            "count" : 4,
            "max" : [
                -3.042999267578125,
                2.6044921875,
                0.7375526428222656
            ],
            "min" : [
                -3.042999267578125,
                0.5733871459960938,
                -0.7486228942871094
            ],
            "type" : "VEC3"
        },
        {
            "bufferView" : 9,
            "componentType" : 5126,
            "count" : 4,
            "type" : "VEC3"
        },
        {
            "bufferView" : 10,
            "componentType" : 5126,
            "count" : 4,
            "type" : "VEC2"
        },
        {
            "bufferView" : 11,
            "componentType" : 5123,
            "count" : 6,
            "type" : "SCALAR"
        }
    ],
    "bufferViews" : [
        {
            "buffer" : 0,
            "byteLength" : 3432,
            "byteOffset" : 0
        },
        {
            "buffer" : 0,
            "byteLength" : 3432,
            "byteOffset" : 3432
        },
        {
            "buffer" : 0,
            "byteLength" : 2288,
            "byteOffset" : 6864
        },
        {
            "buffer" : 0,
            "byteLength" : 1188,
            "byteOffset" : 9152
        },
        {
            "buffer" : 0,
            "byteLength" : 145248,
            "byteOffset" : 10340
        },
        {
            "buffer" : 0,
            "byteLength" : 145248,
            "byteOffset" : 155588
        },
        {
            "buffer" : 0,
            "byteLength" : 96832,
            "byteOffset" : 300836
        },
        {
            "buffer" : 0,
            "byteLength" : 43932,
            "byteOffset" : 397668
        },
        {
            "buffer" : 0,
            "byteLength" : 48,
            "byteOffset" : 441600
        },
        {
            "buffer" : 0,
            "byteLength" : 48,
            "byteOffset" : 441648
        },
        {
            "buffer" : 0,
            "byteLength" : 32,
            "byteOffset" : 441696
        },
        {
            "buffer" : 0,
            "byteLength" : 12,
            "byteOffset" : 441728
        },
        {
            "buffer" : 0,
            "byteLength" : 35843,
            "byteOffset" : 441740
        }
    ],
    "samplers" : [
        {
            "magFilter" : 9729,
            "minFilter" : 9987
        }
    ],
    "buffers" : [
        {
            "byteLength" : 477584,
            "uri" : "data:application/octet-stream;base64,"
        }
    ]
}
