{
    "asset" : {
        "generator" : "Khronos glTF Blender I/O v1.8.19",
        "version" : "2.0"
    },
    "scene" : 0,
    "scenes" : [
        {
            "name" : "Scene",
            "nodes" : [
                0
            ]
        }
    ],
    "nodes" : [
        {
            "mesh" : 0,
            "name" : "\u7ad9\u53f002"
        }
    ],
    "materials" : [
        {
            "doubleSided" : true,
            "name" : "Mat3d66-1117589-32-2862",
            "pbrMetallicRoughness" : {
                "baseColorFactor" : [
                    0.18431372940540314,
                    0.20784315466880798,
                    0.2196078598499298,
                    1
                ],
                "metallicFactor" : 0.4566929340362549,
                "roughnessFactor" : 0.7168463468551636
            }
        },
        {
            "doubleSided" : true,
            "name" : "Mat3d66-1117589-30-2189",
            "pbrMetallicRoughness" : {
                "baseColorFactor" : [
                    0.9098039865493774,
                    0.12156863510608673,
                    0.01568627543747425,
                    1
                ],
                "metallicFactor" : 0.25196850299835205,
                "roughnessFactor" : 0.858578622341156
            }
        },
        {
            "doubleSided" : true,
            "name" : "Mat3d66-1117589-31-1283",
            "pbrMetallicRoughness" : {
                "baseColorFactor" : [
                    0.6862999796867371,
                    0.4471000134944916,
                    0.4000000059604645,
                    1
                ],
                "metallicFactor" : 0,
                "roughnessFactor" : 0
            }
        },
        {
            "doubleSided" : true,
            "name" : "Mat3d66-1117589-13-1797",
            "pbrMetallicRoughness" : {
                "baseColorTexture" : {
                    "index" : 0
                },
                "metallicFactor" : 0,
                "roughnessFactor" : 0.3467676043510437
            }
        },
        {
            "doubleSided" : true,
            "name" : "Mat3d66-1117589-34-454",
            "pbrMetallicRoughness" : {
                "baseColorTexture" : {
                    "index" : 1
                },
                "metallicFactor" : 0,
                "roughnessFactor" : 0.8822006583213806
            }
        },
        {
            "doubleSided" : true,
            "name" : "Mat3d66-1117589-33-4198",
            "pbrMetallicRoughness" : {
                "baseColorFactor" : [
                    0.3803921937942505,
                    0.46274513006210327,
                    0.4784314036369324,
                    0.2999999523162842
                ],
                "metallicFactor" : 0,
                "roughnessFactor" : 0.39371341466903687
            }
        }
    ],
    "meshes" : [
        {
            "name" : "\u7f51\u683c.061",
            "primitives" : [
                {
                    "attributes" : {
                        "POSITION" : 0,
                        "NORMAL" : 1,
                        "TEXCOORD_0" : 2
                    },
                    "indices" : 3,
                    "material" : 0
                },
                {
                    "attributes" : {
                        "POSITION" : 4,
                        "NORMAL" : 5,
                        "TEXCOORD_0" : 6
                    },
                    "indices" : 7,
                    "material" : 1
                },
                {
                    "attributes" : {
                        "POSITION" : 8,
                        "NORMAL" : 9,
                        "TEXCOORD_0" : 10
                    },
                    "indices" : 11,
                    "material" : 2
                },
                {
                    "attributes" : {
                        "POSITION" : 12,
                        "NORMAL" : 13,
                        "TEXCOORD_0" : 14
                    },
                    "indices" : 11,
                    "material" : 3
                },
                {
                    "attributes" : {
                        "POSITION" : 15,
                        "NORMAL" : 16,
                        "TEXCOORD_0" : 17
                    },
                    "indices" : 11,
                    "material" : 4
                },
                {
                    "attributes" : {
                        "POSITION" : 18,
                        "NORMAL" : 19,
                        "TEXCOORD_0" : 20
                    },
                    "indices" : 21,
                    "material" : 5
                }
            ]
        }
    ],
    "textures" : [
        {
            "sampler" : 0,
            "source" : 0
        },
        {
            "sampler" : 0,
            "source" : 1
        }
    ],
    "images" : [
        {
            "bufferView" : 15,
            "mimeType" : "image/png",
            "name" : "3d66Model-1117589-files-17"
        },
        {
            "bufferView" : 19,
            "mimeType" : "image/jpeg",
            "name" : "3d66Model-1117589-files-12"
        }
    ],
    "accessors" : [
        {
            "bufferView" : 0,
            "componentType" : 5126,
            "count" : 10396,
            "max" : [
                10.716796875,
                3.8467838764190674,
                0.802490234375
            ],
            "min" : [
                -10.7166748046875,
                4.470348358154297e-08,
                -0.8026123046875
            ],
            "type" : "VEC3"
        },
        {
            "bufferView" : 1,
            "componentType" : 5126,
            "count" : 10396,
            "type" : "VEC3"
        },
        {
            "bufferView" : 2,
            "componentType" : 5126,
            "count" : 10396,
            "type" : "VEC2"
        },
        {
            "bufferView" : 3,
            "componentType" : 5123,
            "count" : 14616,
            "type" : "SCALAR"
        },
        {
            "bufferView" : 4,
            "componentType" : 5126,
            "count" : 624,
            "max" : [
                7.826416015625,
                3.663421154022217,
                0.7003173828125
            ],
            "min" : [
                5.2972412109375,
                0.18186895549297333,
                -0.693359375
            ],
            "type" : "VEC3"
        },
        {
            "bufferView" : 5,
            "componentType" : 5126,
            "count" : 624,
            "type" : "VEC3"
        },
        {
            "bufferView" : 6,
            "componentType" : 5126,
            "count" : 624,
            "type" : "VEC2"
        },
        {
            "bufferView" : 7,
            "componentType" : 5123,
            "count" : 1200,
            "type" : "SCALAR"
        },
        {
            "bufferView" : 8,
            "componentType" : 5126,
            "count" : 48,
            "max" : [
                1.921142578125,
                2.587507724761963,
                -0.6346435546875
            ],
            "min" : [
                -10.470703125,
                1.2389646768569946,
                -0.6507568359375
            ],
            "type" : "VEC3"
        },
        {
            "bufferView" : 9,
            "componentType" : 5126,
            "count" : 48,
            "type" : "VEC3"
        },
        {
            "bufferView" : 10,
            "componentType" : 5126,
            "count" : 48,
            "type" : "VEC2"
        },
        {
            "bufferView" : 11,
            "componentType" : 5123,
            "count" : 72,
            "type" : "SCALAR"
        },
        {
            "bufferView" : 12,
            "componentType" : 5126,
            "count" : 48,
            "max" : [
                0.4501953125,
                2.655890703201294,
                -0.59228515625
            ],
            "min" : [
                -8.8704833984375,
                1.311663269996643,
                -0.6053466796875
            ],
            "type" : "VEC3"
        },
        {
            "bufferView" : 13,
            "componentType" : 5126,
            "count" : 48,
            "type" : "VEC3"
        },
        {
            "bufferView" : 14,
            "componentType" : 5126,
            "count" : 48,
            "type" : "VEC2"
        },
        {
            "bufferView" : 16,
            "componentType" : 5126,
            "count" : 48,
            "max" : [
                10.1728515625,
                3.267334222793579,
                0.7674560546875
            ],
            "min" : [
                8.3739013671875,
                0.5439736843109131,
                -0.7554931640625
            ],
            "type" : "VEC3"
        },
        {
            "bufferView" : 17,
            "componentType" : 5126,
            "count" : 48,
            "type" : "VEC3"
        },
        {
            "bufferView" : 18,
            "componentType" : 5126,
            "count" : 48,
            "type" : "VEC2"
        },
        {
            "bufferView" : 20,
            "componentType" : 5126,
            "count" : 24,
            "max" : [
                10.173095703125,
                3.267334222793579,
                -0.7686767578125
            ],
            "min" : [
                8.374267578125,
                0.5439735651016235,
                -0.7774658203125
            ],
            "type" : "VEC3"
        },
        {
            "bufferView" : 21,
            "componentType" : 5126,
            "count" : 24,
            "type" : "VEC3"
        },
        {
            "bufferView" : 22,
            "componentType" : 5126,
            "count" : 24,
            "type" : "VEC2"
        },
        {
            "bufferView" : 23,
            "componentType" : 5123,
            "count" : 36,
            "type" : "SCALAR"
        }
    ],
    "bufferViews" : [
        {
            "buffer" : 0,
            "byteLength" : 124752,
            "byteOffset" : 0
        },
        {
            "buffer" : 0,
            "byteLength" : 124752,
            "byteOffset" : 124752
        },
        {
            "buffer" : 0,
            "byteLength" : 83168,
            "byteOffset" : 249504
        },
        {
            "buffer" : 0,
            "byteLength" : 29232,
            "byteOffset" : 332672
        },
        {
            "buffer" : 0,
            "byteLength" : 7488,
            "byteOffset" : 361904
        },
        {
            "buffer" : 0,
            "byteLength" : 7488,
            "byteOffset" : 369392
        },
        {
            "buffer" : 0,
            "byteLength" : 4992,
            "byteOffset" : 376880
        },
        {
            "buffer" : 0,
            "byteLength" : 2400,
            "byteOffset" : 381872
        },
        {
            "buffer" : 0,
            "byteLength" : 576,
            "byteOffset" : 384272
        },
        {
            "buffer" : 0,
            "byteLength" : 576,
            "byteOffset" : 384848
        },
        {
            "buffer" : 0,
            "byteLength" : 384,
            "byteOffset" : 385424
        },
        {
            "buffer" : 0,
            "byteLength" : 144,
            "byteOffset" : 385808
        },
        {
            "buffer" : 0,
            "byteLength" : 576,
            "byteOffset" : 385952
        },
        {
            "buffer" : 0,
            "byteLength" : 576,
            "byteOffset" : 386528
        },
        {
            "buffer" : 0,
            "byteLength" : 384,
            "byteOffset" : 387104
        },
        {
            "buffer" : 0,
            "byteLength" : 64926,
            "byteOffset" : 387488
        },
        {
            "buffer" : 0,
            "byteLength" : 576,
            "byteOffset" : 452416
        },
        {
            "buffer" : 0,
            "byteLength" : 576,
            "byteOffset" : 452992
        },
        {
            "buffer" : 0,
            "byteLength" : 384,
            "byteOffset" : 453568
        },
        {
            "buffer" : 0,
            "byteLength" : 31355,
            "byteOffset" : 453952
        },
        {
            "buffer" : 0,
            "byteLength" : 288,
            "byteOffset" : 485308
        },
        {
            "buffer" : 0,
            "byteLength" : 288,
            "byteOffset" : 485596
        },
        {
            "buffer" : 0,
            "byteLength" : 192,
            "byteOffset" : 485884
        },
        {
            "buffer" : 0,
            "byteLength" : 72,
            "byteOffset" : 486076
        }
    ],
    "samplers" : [
        {
            "magFilter" : 9729,
            "minFilter" : 9987
        }
    ],
    "buffers" : [
        {
            "byteLength" : 486148,
            "uri" : "data:application/octet-stream;base64,"
        }
    ]
}
