{
    "asset" : {
        "generator" : "Khronos glTF Blender I/O v1.8.19",
        "version" : "2.0"
    },
    "scene" : 0,
    "scenes" : [
        {
            "name" : "Scene",
            "nodes" : [
                0
            ]
        }
    ],
    "nodes" : [
        {
            "mesh" : 0,
            "name" : "\u8def\u680769"
        }
    ],
    "materials" : [
        {
            "doubleSided" : true,
            "name" : "sign base.012",
            "pbrMetallicRoughness" : {
                "baseColorFactor" : [
                    0.23109185695648193,
                    0.23109185695648193,
                    0.23109185695648193,
                    1
                ],
                "metallicFactor" : 0
            }
        },
        {
            "doubleSided" : true,
            "name" : "sign metal.012",
            "pbrMetallicRoughness" : {
                "baseColorFactor" : [
                    0.5882350206375122,
                    0.5882350206375122,
                    0.5882350206375122,
                    1
                ],
                "metallicFactor" : 0,
                "roughnessFactor" : 0.67322838306427
            }
        },
        {
            "doubleSided" : true,
            "name" : "sign end roadwork face",
            "pbrMetallicRoughness" : {
                "baseColorTexture" : {
                    "index" : 0
                },
                "metallicFactor" : 0,
                "roughnessFactor" : 0.6811023950576782
            }
        }
    ],
    "meshes" : [
        {
            "name" : "Obj3d66-729997-23-199",
            "primitives" : [
                {
                    "attributes" : {
                        "POSITION" : 0,
                        "NORMAL" : 1,
                        "TEXCOORD_0" : 2
                    },
                    "indices" : 3,
                    "material" : 0
                },
                {
                    "attributes" : {
                        "POSITION" : 4,
                        "NORMAL" : 5,
                        "TEXCOORD_0" : 6
                    },
                    "indices" : 7,
                    "material" : 1
                },
                {
                    "attributes" : {
                        "POSITION" : 8,
                        "NORMAL" : 9,
                        "TEXCOORD_0" : 10
                    },
                    "indices" : 11,
                    "material" : 2
                },
                {
                    "attributes" : {
                        "POSITION" : 12,
                        "NORMAL" : 13,
                        "TEXCOORD_0" : 14
                    },
                    "indices" : 15,
                    "material" : 1
                }
            ]
        }
    ],
    "textures" : [
        {
            "sampler" : 0,
            "source" : 0
        }
    ],
    "images" : [
        {
            "bufferView" : 12,
            "mimeType" : "image/jpeg",
            "name" : "3d66Model-729997-files-28"
        }
    ],
    "accessors" : [
        {
            "bufferView" : 0,
            "componentType" : 5126,
            "count" : 346,
            "max" : [
                0.4728410243988037,
                0.17261700332164764,
                0.07423099875450134
            ],
            "min" : [
                -0.4752269685268402,
                0,
                -0.07423099875450134
            ],
            "type" : "VEC3"
        },
        {
            "bufferView" : 1,
            "componentType" : 5126,
            "count" : 346,
            "type" : "VEC3"
        },
        {
            "bufferView" : 2,
            "componentType" : 5126,
            "count" : 346,
            "type" : "VEC2"
        },
        {
            "bufferView" : 3,
            "componentType" : 5123,
            "count" : 1416,
            "type" : "SCALAR"
        },
        {
            "bufferView" : 4,
            "componentType" : 5126,
            "count" : 7452,
            "max" : [
                0.43604201078414917,
                2.598578929901123,
                0.014014000073075294
            ],
            "min" : [
                -0.43929997086524963,
                0.160180002450943,
                -0.030671000480651855
            ],
            "type" : "VEC3"
        },
        {
            "bufferView" : 5,
            "componentType" : 5126,
            "count" : 7452,
            "type" : "VEC3"
        },
        {
            "bufferView" : 6,
            "componentType" : 5126,
            "count" : 7452,
            "type" : "VEC2"
        },
        {
            "bufferView" : 7,
            "componentType" : 5123,
            "count" : 21744,
            "type" : "SCALAR"
        },
        {
            "bufferView" : 8,
            "componentType" : 5126,
            "count" : 112,
            "max" : [
                0.5212810039520264,
                2.606755018234253,
                0.00634999992325902
            ],
            "min" : [
                -0.5212810039520264,
                2.1709210872650146,
                0
            ],
            "type" : "VEC3"
        },
        {
            "bufferView" : 9,
            "componentType" : 5126,
            "count" : 112,
            "type" : "VEC3"
        },
        {
            "bufferView" : 10,
            "componentType" : 5126,
            "count" : 112,
            "type" : "VEC2"
        },
        {
            "bufferView" : 11,
            "componentType" : 5123,
            "count" : 282,
            "type" : "SCALAR"
        },
        {
            "bufferView" : 13,
            "componentType" : 5126,
            "count" : 32,
            "max" : [
                0.5212810039520264,
                2.606755018234253,
                0
            ],
            "min" : [
                -0.5212810039520264,
                2.1709210872650146,
                0
            ],
            "type" : "VEC3"
        },
        {
            "bufferView" : 14,
            "componentType" : 5126,
            "count" : 32,
            "type" : "VEC3"
        },
        {
            "bufferView" : 15,
            "componentType" : 5126,
            "count" : 32,
            "type" : "VEC2"
        },
        {
            "bufferView" : 16,
            "componentType" : 5123,
            "count" : 90,
            "type" : "SCALAR"
        }
    ],
    "bufferViews" : [
        {
            "buffer" : 0,
            "byteLength" : 4152,
            "byteOffset" : 0
        },
        {
            "buffer" : 0,
            "byteLength" : 4152,
            "byteOffset" : 4152
        },
        {
            "buffer" : 0,
            "byteLength" : 2768,
            "byteOffset" : 8304
        },
        {
            "buffer" : 0,
            "byteLength" : 2832,
            "byteOffset" : 11072
        },
        {
            "buffer" : 0,
            "byteLength" : 89424,
            "byteOffset" : 13904
        },
        {
            "buffer" : 0,
            "byteLength" : 89424,
            "byteOffset" : 103328
        },
        {
            "buffer" : 0,
            "byteLength" : 59616,
            "byteOffset" : 192752
        },
        {
            "buffer" : 0,
            "byteLength" : 43488,
            "byteOffset" : 252368
        },
        {
            "buffer" : 0,
            "byteLength" : 1344,
            "byteOffset" : 295856
        },
        {
            "buffer" : 0,
            "byteLength" : 1344,
            "byteOffset" : 297200
        },
        {
            "buffer" : 0,
            "byteLength" : 896,
            "byteOffset" : 298544
        },
        {
            "buffer" : 0,
            "byteLength" : 564,
            "byteOffset" : 299440
        },
        {
            "buffer" : 0,
            "byteLength" : 123408,
            "byteOffset" : 300004
        },
        {
            "buffer" : 0,
            "byteLength" : 384,
            "byteOffset" : 423412
        },
        {
            "buffer" : 0,
            "byteLength" : 384,
            "byteOffset" : 423796
        },
        {
            "buffer" : 0,
            "byteLength" : 256,
            "byteOffset" : 424180
        },
        {
            "buffer" : 0,
            "byteLength" : 180,
            "byteOffset" : 424436
        }
    ],
    "samplers" : [
        {
            "magFilter" : 9729,
            "minFilter" : 9987
        }
    ],
    "buffers" : [
        {
            "byteLength" : 424616,
            "uri" : "data:application/octet-stream;base64,"
        }
    ]
}
