{
    "asset" : {
        "generator" : "Khronos glTF Blender I/O v1.8.19",
        "version" : "2.0"
    },
    "scene" : 0,
    "scenes" : [
        {
            "name" : "Scene",
            "nodes" : [
                0
            ]
        }
    ],
    "nodes" : [
        {
            "mesh" : 0,
            "name" : "\u7ea2\u7eff\u706f09"
        }
    ],
    "materials" : [
        {
            "doubleSided" : true,
            "name" : "Mat3d66-6837446-65-22490.002",
            "pbrMetallicRoughness" : {
                "baseColorFactor" : [
                    0.2862749993801117,
                    0.2862749993801117,
                    0.2862749993801117,
                    1
                ],
                "metallicFactor" : 0.11023622006177902,
                "roughnessFactor" : 0.6181102991104126
            }
        },
        {
            "doubleSided" : true,
            "name" : "1dss079_1",
            "pbrMetallicRoughness" : {
                "baseColorFactor" : [
                    1,
                    1,
                    0,
                    1
                ],
                "metallicFactor" : 0,
                "roughnessFactor" : 0.6889764070510864
            }
        },
        {
            "doubleSided" : true,
            "name" : "1dss079_2.002",
            "pbrMetallicRoughness" : {
                "baseColorFactor" : [
                    0.4196079969406128,
                    1,
                    0.3882350027561188,
                    1
                ],
                "metallicFactor" : 0,
                "roughnessFactor" : 0.7204724550247192
            }
        },
        {
            "doubleSided" : true,
            "name" : "Mat3d66-6837446-80-58953.001",
            "pbrMetallicRoughness" : {
                "baseColorFactor" : [
                    0.8901960253715515,
                    0.09411799907684326,
                    0.21568599343299866,
                    1
                ],
                "metallicFactor" : 0,
                "roughnessFactor" : 0.751968502998352
            }
        },
        {
            "doubleSided" : true,
            "name" : "Mat3d66-6837446-64-86290",
            "pbrMetallicRoughness" : {
                "baseColorFactor" : [
                    0.2509799897670746,
                    0.2509799897670746,
                    0.2509799897670746,
                    1
                ],
                "metallicFactor" : 0,
                "roughnessFactor" : 0.665354311466217
            }
        },
        {
            "doubleSided" : true,
            "name" : "Mat3d66-6837446-72-44581",
            "pbrMetallicRoughness" : {
                "baseColorTexture" : {
                    "index" : 0
                },
                "metallicFactor" : 0,
                "roughnessFactor" : 0.7598425149917603
            }
        },
        {
            "doubleSided" : true,
            "name" : "Mat3d66-6837446-73-81990",
            "pbrMetallicRoughness" : {
                "baseColorTexture" : {
                    "index" : 1
                },
                "metallicFactor" : 0,
                "roughnessFactor" : 0.712598443031311
            }
        }
    ],
    "meshes" : [
        {
            "name" : "Obj3d66-6837446-313-78",
            "primitives" : [
                {
                    "attributes" : {
                        "POSITION" : 0,
                        "NORMAL" : 1,
                        "TEXCOORD_0" : 2
                    },
                    "indices" : 3,
                    "material" : 0
                },
                {
                    "attributes" : {
                        "POSITION" : 4,
                        "NORMAL" : 5,
                        "TEXCOORD_0" : 6
                    },
                    "indices" : 7,
                    "material" : 1
                },
                {
                    "attributes" : {
                        "POSITION" : 8,
                        "NORMAL" : 9,
                        "TEXCOORD_0" : 10
                    },
                    "indices" : 11,
                    "material" : 2
                },
                {
                    "attributes" : {
                        "POSITION" : 12,
                        "NORMAL" : 13,
                        "TEXCOORD_0" : 14
                    },
                    "indices" : 15,
                    "material" : 3
                },
                {
                    "attributes" : {
                        "POSITION" : 16,
                        "NORMAL" : 17,
                        "TEXCOORD_0" : 18
                    },
                    "indices" : 19,
                    "material" : 4
                },
                {
                    "attributes" : {
                        "POSITION" : 20,
                        "NORMAL" : 21,
                        "TEXCOORD_0" : 22
                    },
                    "indices" : 23,
                    "material" : 5
                },
                {
                    "attributes" : {
                        "POSITION" : 24,
                        "NORMAL" : 25,
                        "TEXCOORD_0" : 26
                    },
                    "indices" : 23,
                    "material" : 6
                }
            ]
        }
    ],
    "textures" : [
        {
            "sampler" : 0,
            "source" : 0
        },
        {
            "sampler" : 0,
            "source" : 1
        }
    ],
    "images" : [
        {
            "bufferView" : 24,
            "mimeType" : "image/png",
            "name" : "3d66Model-6837446-files-14"
        },
        {
            "bufferView" : 28,
            "mimeType" : "image/png",
            "name" : "3d66Model-6837446-files-9"
        }
    ],
    "accessors" : [
        {
            "bufferView" : 0,
            "componentType" : 5126,
            "count" : 3276,
            "max" : [
                0.224822998046875,
                6.116909027099609,
                0.2222198247909546
            ],
            "min" : [
                -0.5345300436019897,
                0,
                -0.2242041826248169
            ],
            "type" : "VEC3"
        },
        {
            "bufferView" : 1,
            "componentType" : 5126,
            "count" : 3276,
            "type" : "VEC3"
        },
        {
            "bufferView" : 2,
            "componentType" : 5126,
            "count" : 3276,
            "type" : "VEC2"
        },
        {
            "bufferView" : 3,
            "componentType" : 5123,
            "count" : 4962,
            "type" : "SCALAR"
        },
        {
            "bufferView" : 4,
            "componentType" : 5126,
            "count" : 736,
            "max" : [
                0.44405412673950195,
                6.509777069091797,
                0.2195500135421753
            ],
            "min" : [
                0.35270845890045166,
                6.068691253662109,
                -0.2215343713760376
            ],
            "type" : "VEC3"
        },
        {
            "bufferView" : 5,
            "componentType" : 5126,
            "count" : 736,
            "type" : "VEC3"
        },
        {
            "bufferView" : 6,
            "componentType" : 5126,
            "count" : 736,
            "type" : "VEC2"
        },
        {
            "bufferView" : 7,
            "componentType" : 5123,
            "count" : 1056,
            "type" : "SCALAR"
        },
        {
            "bufferView" : 8,
            "componentType" : 5126,
            "count" : 736,
            "max" : [
                0.44405412673950195,
                5.77690315246582,
                0.2195500135421753
            ],
            "min" : [
                0.35270845890045166,
                5.335819244384766,
                -0.2215343713760376
            ],
            "type" : "VEC3"
        },
        {
            "bufferView" : 9,
            "componentType" : 5126,
            "count" : 736,
            "type" : "VEC3"
        },
        {
            "bufferView" : 10,
            "componentType" : 5126,
            "count" : 736,
            "type" : "VEC2"
        },
        {
            "bufferView" : 11,
            "componentType" : 5123,
            "count" : 1056,
            "type" : "SCALAR"
        },
        {
            "bufferView" : 12,
            "componentType" : 5126,
            "count" : 736,
            "max" : [
                0.44405412673950195,
                7.202266693115234,
                0.2195500135421753
            ],
            "min" : [
                0.35270845890045166,
                6.76118278503418,
                -0.2215343713760376
            ],
            "type" : "VEC3"
        },
        {
            "bufferView" : 13,
            "componentType" : 5126,
            "count" : 736,
            "type" : "VEC3"
        },
        {
            "bufferView" : 14,
            "componentType" : 5126,
            "count" : 736,
            "type" : "VEC2"
        },
        {
            "bufferView" : 15,
            "componentType" : 5123,
            "count" : 1056,
            "type" : "SCALAR"
        },
        {
            "bufferView" : 16,
            "componentType" : 5126,
            "count" : 8664,
            "max" : [
                0.7295916080474854,
                7.357694625854492,
                0.49667370319366455
            ],
            "min" : [
                -0.7295916080474854,
                4.724231719970703,
                -0.3463701009750366
            ],
            "type" : "VEC3"
        },
        {
            "bufferView" : 17,
            "componentType" : 5126,
            "count" : 8664,
            "type" : "VEC3"
        },
        {
            "bufferView" : 18,
            "componentType" : 5126,
            "count" : 8664,
            "type" : "VEC2"
        },
        {
            "bufferView" : 19,
            "componentType" : 5123,
            "count" : 9198,
            "type" : "SCALAR"
        },
        {
            "bufferView" : 20,
            "componentType" : 5126,
            "count" : 4,
            "max" : [
                -0.19458746910095215,
                5.241567611694336,
                0.17294609546661377
            ],
            "min" : [
                -0.6806137561798096,
                4.770963668823242,
                0.17294609546661377
            ],
            "type" : "VEC3"
        },
        {
            "bufferView" : 21,
            "componentType" : 5126,
            "count" : 4,
            "type" : "VEC3"
        },
        {
            "bufferView" : 22,
            "componentType" : 5126,
            "count" : 4,
            "type" : "VEC2"
        },
        {
            "bufferView" : 23,
            "componentType" : 5123,
            "count" : 6,
            "type" : "SCALAR"
        },
        {
            "bufferView" : 25,
            "componentType" : 5126,
            "count" : 4,
            "max" : [
                -0.19458836317062378,
                5.840366363525391,
                0.17294609546661377
            ],
            "min" : [
                -0.6806146502494812,
                5.369760513305664,
                0.17294514179229736
            ],
            "type" : "VEC3"
        },
        {
            "bufferView" : 26,
            "componentType" : 5126,
            "count" : 4,
            "type" : "VEC3"
        },
        {
            "bufferView" : 27,
            "componentType" : 5126,
            "count" : 4,
            "type" : "VEC2"
        }
    ],
    "bufferViews" : [
        {
            "buffer" : 0,
            "byteLength" : 39312,
            "byteOffset" : 0
        },
        {
            "buffer" : 0,
            "byteLength" : 39312,
            "byteOffset" : 39312
        },
        {
            "buffer" : 0,
            "byteLength" : 26208,
            "byteOffset" : 78624
        },
        {
            "buffer" : 0,
            "byteLength" : 9924,
            "byteOffset" : 104832
        },
        {
            "buffer" : 0,
            "byteLength" : 8832,
            "byteOffset" : 114756
        },
        {
            "buffer" : 0,
            "byteLength" : 8832,
            "byteOffset" : 123588
        },
        {
            "buffer" : 0,
            "byteLength" : 5888,
            "byteOffset" : 132420
        },
        {
            "buffer" : 0,
            "byteLength" : 2112,
            "byteOffset" : 138308
        },
        {
            "buffer" : 0,
            "byteLength" : 8832,
            "byteOffset" : 140420
        },
        {
            "buffer" : 0,
            "byteLength" : 8832,
            "byteOffset" : 149252
        },
        {
            "buffer" : 0,
            "byteLength" : 5888,
            "byteOffset" : 158084
        },
        {
            "buffer" : 0,
            "byteLength" : 2112,
            "byteOffset" : 163972
        },
        {
            "buffer" : 0,
            "byteLength" : 8832,
            "byteOffset" : 166084
        },
        {
            "buffer" : 0,
            "byteLength" : 8832,
            "byteOffset" : 174916
        },
        {
            "buffer" : 0,
            "byteLength" : 5888,
            "byteOffset" : 183748
        },
        {
            "buffer" : 0,
            "byteLength" : 2112,
            "byteOffset" : 189636
        },
        {
            "buffer" : 0,
            "byteLength" : 103968,
            "byteOffset" : 191748
        },
        {
            "buffer" : 0,
            "byteLength" : 103968,
            "byteOffset" : 295716
        },
        {
            "buffer" : 0,
            "byteLength" : 69312,
            "byteOffset" : 399684
        },
        {
            "buffer" : 0,
            "byteLength" : 18396,
            "byteOffset" : 468996
        },
        {
            "buffer" : 0,
            "byteLength" : 48,
            "byteOffset" : 487392
        },
        {
            "buffer" : 0,
            "byteLength" : 48,
            "byteOffset" : 487440
        },
        {
            "buffer" : 0,
            "byteLength" : 32,
            "byteOffset" : 487488
        },
        {
            "buffer" : 0,
            "byteLength" : 12,
            "byteOffset" : 487520
        },
        {
            "buffer" : 0,
            "byteLength" : 200067,
            "byteOffset" : 487532
        },
        {
            "buffer" : 0,
            "byteLength" : 48,
            "byteOffset" : 687600
        },
        {
            "buffer" : 0,
            "byteLength" : 48,
            "byteOffset" : 687648
        },
        {
            "buffer" : 0,
            "byteLength" : 32,
            "byteOffset" : 687696
        },
        {
            "buffer" : 0,
            "byteLength" : 263360,
            "byteOffset" : 687728
        }
    ],
    "samplers" : [
        {
            "magFilter" : 9729,
            "minFilter" : 9987
        }
    ],
    "buffers" : [
        {
            "byteLength" : 951088,
            "uri" : "data:application/octet-stream;base64,"
        }
    ]
}
