{
    "asset" : {
        "generator" : "Khronos glTF Blender I/O v1.8.19",
        "version" : "2.0"
    },
    "scene" : 0,
    "scenes" : [
        {
            "name" : "Scene",
            "nodes" : [
                0
            ]
        }
    ],
    "nodes" : [
        {
            "mesh" : 0,
            "name" : "\u5de5\u7a0b\u8f6608"
        }
    ],
    "materials" : [
        {
            "doubleSided" : true,
            "name" : "Mat3d66-1097112-4-3285",
            "pbrMetallicRoughness" : {
                "baseColorTexture" : {
                    "index" : 0
                },
                "metallicFactor" : 0.23622047901153564,
                "roughnessFactor" : 0.751968502998352
            }
        }
    ],
    "meshes" : [
        {
            "name" : "Obj3d66-1097112-1-291",
            "primitives" : [
                {
                    "attributes" : {
                        "POSITION" : 0,
                        "NORMAL" : 1,
                        "TEXCOORD_0" : 2
                    },
                    "indices" : 3,
                    "material" : 0
                }
            ]
        }
    ],
    "textures" : [
        {
            "sampler" : 0,
            "source" : 0
        }
    ],
    "images" : [
        {
            "bufferView" : 4,
            "mimeType" : "image/png",
            "name" : "3d66Model-1097112-files-1"
        }
    ],
    "accessors" : [
        {
            "bufferView" : 0,
            "componentType" : 5126,
            "count" : 2197,
            "max" : [
                0.9110605120658875,
                2.3741602897644043,
                3.8672802448272705
            ],
            "min" : [
                -0.9110594391822815,
                0.007299513556063175,
                -2.232800006866455
            ],
            "type" : "VEC3"
        },
        {
            "bufferView" : 1,
            "componentType" : 5126,
            "count" : 2197,
            "type" : "VEC3"
        },
        {
            "bufferView" : 2,
            "componentType" : 5126,
            "count" : 2197,
            "type" : "VEC2"
        },
        {
            "bufferView" : 3,
            "componentType" : 5123,
            "count" : 3750,
            "type" : "SCALAR"
        }
    ],
    "bufferViews" : [
        {
            "buffer" : 0,
            "byteLength" : 26364,
            "byteOffset" : 0
        },
        {
            "buffer" : 0,
            "byteLength" : 26364,
            "byteOffset" : 26364
        },
        {
            "buffer" : 0,
            "byteLength" : 17576,
            "byteOffset" : 52728
        },
        {
            "buffer" : 0,
            "byteLength" : 7500,
            "byteOffset" : 70304
        },
        {
            "buffer" : 0,
            "byteLength" : 66957,
            "byteOffset" : 77804
        }
    ],
    "samplers" : [
        {
            "magFilter" : 9729,
            "minFilter" : 9987
        }
    ],
    "buffers" : [
        {
            "byteLength" : 144764,
            "uri" : "data:application/octet-stream;base64,"
        }
    ]
}
